# xmcd CD database file
#
# Track frame offsets:
#	150
#	14901
#	33018
#	46564
#	60236
#	73593
#	85698
#	103596
#	118515
#	135696
#	153835
#
# Disc length: 2274 seconds
#
# Revision: 0
# Processed by: cddbd v1.5.2PL0 Copyright (c) Steve Scherf et al.
# Submitted via: CDex 1.70beta2
#
DISCID=7e08e00b
DTITLE=Len Doolin - Once in a lifetime
DYEAR=2001
DGENRE=Country
TTITLE0=Breakin whats left of my heart
TTITLE1=Redneck Relapse
TTITLE2=The Promise
TTITLE3=Heartaches and Honky Tonks
TTITLE4=My world is turnin again
TTITLE5=Girl with a bass boat
TTITLE6=She took his breath away
TTITLE7=Time flies
TTITLE8=Heaven sent me you
TTITLE9=Silence says it all
TTITLE10=Once in a lifetime
EXTD=YEAR: 2001
EXTT0=
EXTT1=
EXTT2=
EXTT3=
EXTT4=
EXTT5=
EXTT6=
EXTT7=
EXTT8=
EXTT9=
EXTT10=
PLAYORDER=
